# xmcd
#
# Track frame offsets:
#	150
#	18791
#	34920
#	55096
#	70798
#	90178
#	106568
#	123137
#	144511
#	168151
#	182649
#	203595
#	221968
#
# Disc length: 3213 seconds
#
# Revision: 0
# Processed by: cddbd v1.5.1PL2 Copyright (c) Steve Scherf et al.
# Submitted via: dBpowerAMP V4.0
#
DISCID=9f0c8b0d
DTITLE=Sidewalk Bob - 13 Shades of Blues
DYEAR=2006
DGENRE=blues
TTITLE0=She Belongs to Me (B.Dylan )
TTITLE1=Red Rooster (W.Dixon )
TTITLE2=Keep my Grave Kept Clean (L.Jefferson )
TTITLE3=Walking Blues (R.Johnson )
TTITLE4=Buttermilk Blues (Sidewalk Bob )
TTITLE5=Death Letter (Son House )
TTITLE6=Where Were You (Sidewalk Bob )
TTITLE7=Blues With a Feeling (Little Walter )
TTITLE8=61 Highway ( F. Mc Dowell )
TTITLE9=Copperhead Road (S.Earle )
TTITLE10=Preaching Blues (Son House )
TTITLE11=Cross Roads  Blues (R.Johnson )
TTITLE12=Waymores Blues (W.Jennings )
EXTD=CD Baby
EXTT0=
EXTT1=
EXTT2=
EXTT3=
EXTT4=
EXTT5=
EXTT6=
EXTT7=
EXTT8=
EXTT9=
EXTT10=
EXTT11=
EXTT12=
PLAYORDER=
